PathFileType	4	(X/Y/Z)	D:\Research_projects\MuscleProsody\BulkSports2Dtrack\RetrackedSports2D\p1_sample60_cam1\p1_sample60_cam1_Sports2D\p1_sample60_cam1_Sports2D_m_person00.trc
DataRate	CameraRate	NumFrames	NumMarkers	Units	OrigDataRate	OrigDataStartFrame	OrigNumFrames
60	60	7	22	m	60	487	780
Frame#	Time	Hip			RHip			RKnee			RAnkle			RBigToe			RSmallToe			RHeel			LHip			LKnee			LAnkle			LBigToe			LSmallToe			LHeel			Neck			Head			Nose			RShoulder			RElbow			RWrist			LShoulder			LElbow			LWrist		
		X1	Y1	Z1	X2	Y2	Z2	X3	Y3	Z3	X4	Y4	Z4	X5	Y5	Z5	X6	Y6	Z6	X7	Y7	Z7	X8	Y8	Z8	X9	Y9	Z9	X10	Y10	Z10	X11	Y11	Z11	X12	Y12	Z12	X13	Y13	Z13	X14	Y14	Z14	X15	Y15	Z15	X16	Y16	Z16	X17	Y17	Z17	X18	Y18	Z18	X19	Y19	Z19	X20	Y20	Z20	X21	Y21	Z21	X22	Y22	Z22
487	8.116666666666667	1.8425446109482784	0.6891284844607071	0.0301	1.741006859415151	0.717309641958057	0.0301	1.492878436645113	0.4236011479022509	0.129	1.269710450079205	0.16834676572656151	0.023	1.3014927088735602	-0.0014018335270630311	0.2179	1.230204273404259	0.03931041025452598	0.1804	1.2088820431817096	0.1582169020696697	-0.0119	1.8950965307593104	0.6193384030716058	0.0301	1.6427571913104193	0.3497434725916355	0.129	1.4050367255674021	0.14744059828269387	0.023	1.440015944304465	-0.006605197545001468	0.2179	1.4722352679152926	0.0061035290231748664	0.1804	1.3488057069362085	0.12436264735143016	-0.0119	2.267239527041249	1.1655301051534865	0.0008	2.5122841021183877	1.3282344120613743	0.0655	2.450119270703104	1.198898260281837	0.1076	2.042247969725974	1.2027158795913238	-0.01275	1.7862338569244385	1.05569818942392	0.0702	2.0855730276661992	1.0382524669807993	0.1076	2.305981773383775	1.009243122736122	-0.01275	2.237949355132919	0.7771098874212286	0.0702	2.337062673049831	0.7799177074063199	0.1076
488	8.133333333333333	1.8430902431997374	0.690135697620828	0.0301	1.742099082800014	0.7187524194295822	0.0301	1.492579849306842	0.4234234394271579	0.129	1.268719142964207	0.16734025024887486	0.023	1.299072045824125	-0.0011204158553699954	0.2179	1.2276032663902732	0.04010807016873869	0.1804	1.20942385190997	0.15566088786284876	-0.0119	1.8967503572422209	0.6207654843633705	0.0301	1.6425984151819046	0.3501465854210757	0.129	1.4048019379901129	0.14675200157305815	0.023	1.4420967726413707	-0.007632637350446814	0.2179	1.4735653685118506	0.005656761303317114	0.1804	1.3476821151855622	0.12364320116380904	-0.0119	2.2672728923976218	1.1656452893901437	0.0008	2.513957388749418	1.3272690154980273	0.0655	2.449637890930221	1.197491592684582	0.1076	2.040060973337253	1.2018726657003418	-0.01275	1.786780632871349	1.0442274166432508	0.0702	2.066493592892015	1.048882359055385	0.1076	2.3036844512430306	1.009165923684817	-0.01275	2.2258396991635165	0.7760947586521739	0.0702	2.3525306016884344	0.7718475116939609	0.1076
489	8.15	1.8435626364717332	0.6909739536845503	0.0301	1.7431816310539179	0.7200489554940175	0.0301	1.4921410553336645	0.4230404701362306	0.129	1.2674686988729031	0.16639997931288086	0.023	1.296568592976786	-0.0011059253703427133	0.2179	1.2249743046546784	0.04071960944526509	0.1804	1.2096475016537627	0.15315796087660447	-0.0119	1.8984212449861777	0.6220495293083348	0.0301	1.642369916344566	0.35053643235834664	0.129	1.4047577115795158	0.146319891566199	0.023	1.4437018991660953	-0.00839695958185691	0.2179	1.4746692491630022	0.0054262113673668455	0.1804	1.3466740261008656	0.12325165130514465	-0.0119	2.2669946459440884	1.1655884082248498	0.0008	2.5153905233617064	1.3263180488832667	0.0655	2.4489327083613253	1.19599887178627	0.1076	2.0379081074946868	1.2008387564074259	-0.01275	1.787504807249589	1.0341455010858227	0.0702	2.0415399145633057	1.0552813847390674	0.1076	2.301223436467436	1.0086910304054464	-0.01275	2.214282434737718	0.7753047653127483	0.0702	2.3662560761218785	0.7594028914316617	0.1076
490	8.166666666666666	1.8438935082719545	0.6915767255612733	0.0301	1.7441216883173498	0.7210960555005708	0.0301	1.4915672219763927	0.42247948378080513	0.129	1.2660854179171552	0.16568458806958516	0.023	1.2940223723111608	-0.001235701532801007	0.2179	1.2223736127383833	0.041263206961851755	0.1804	1.209584402442441	0.15097884457299995	-0.0119	1.8999553983905655	0.6230852270617799	0.0301	1.6420585445799694	0.3508925538533251	0.129	1.4048719805355572	0.14622386536088441	0.023	1.4446962987433505	-0.008838802790104433	0.2179	1.4754640714138774	0.005427935108590553	0.1804	1.345805161415973	0.12326727339921303	-0.0119	2.26634902831425	1.1653264664227256	0.0008	2.516449691711947	1.325415062958161	0.0655	2.44798690687876	1.1944459303505666	0.1076	2.0358052235528974	1.1996847941645417	-0.01275	1.7884812172936424	1.0260404926250684	0.0702	2.011710808192601	1.0572938254673958	0.1076	2.298736582252399	1.0078728926937932	-0.01275	2.2037378782715327	0.7747322967485107	0.0702	2.377494204230125	0.7430816133036151	0.1076
491	8.183333333333334	1.844025923666374	0.6918813472604021	0.0301	1.7448096231638868	0.7218073327137146	0.0301	1.4908689833641993	0.4217822478505675	0.129	1.2647187130890085	0.16530662792134493	0.023	1.2914619806370264	-0.0013803263622818428	0.2179	1.2198289408585132	0.04185105772440205	0.1804	1.2093195362090579	0.14932587251818444	-0.0119	1.9012065442432922	0.6237818237689716	0.0301	1.6416593334962761	0.35119900356946476	0.129	1.4051158667872183	0.14649659552976152	0.023	1.4450507692147176	-0.008968812179144553	0.2179	1.4759235815043645	0.0056299870663022965	0.1804	1.3450855255164043	0.12370125057083489	-0.0119	2.2653248540168582	1.1648567273411479	0.0008	2.517052357272192	1.3245827351579735	0.0655	2.4468418908703033	1.1928522697686985	0.1076	2.0337851182842503	1.1984922567103213	-0.01275	1.789741649334917	1.0203474901377219	0.0702	1.9783005693433995	1.055096785497547	0.1076	2.2963268411610396	1.006796510432693	-0.01275	2.1945727492059484	0.7743403885790269	0.0702	2.385696116840095	0.7236645544225767	0.1076
492	8.2	1.8439257247701148	0.6918471173686784	0.0301	1.7451867994404913	0.7221343904804488	0.0301	1.4900641347063996	0.42099302820314266	0.129	1.2634971627168414	0.16530348338830717	0.023	1.2889334696602894	-0.0014689692735799227	0.2179	1.2173686151712197	0.042521923860303866	0.1804	1.2089482307592543	0.1483024694558841	-0.0119	1.9020645067001885	0.6240847271006624	0.0301	1.641175398883324	0.35144276973827293	0.129	1.405449584415386	0.14709756608262467	0.023	1.44483998404201	-0.008844425350502198	0.2179	1.4760660366844527	0.005982091360543627	0.1804	1.3445136965780393	0.12447037554020471	-0.0119	2.2639860538045964	1.1642080979971288	0.0008	2.517198864614919	1.32383326622544	0.0655	2.445581007156574	1.1912487258124478	0.1076	2.031913665327487	1.1973461904957021	-0.01275	1.7912431861557847	1.0172960689765849	0.0702	1.9428739025464554	1.0492051497533945	0.1076	2.2940637436708275	1.0055502715918048	-0.01275	2.1869911651591196	0.7740763328243571	0.0702	2.3905952224796283	0.7022042806389616	0.1076
493	8.216666666666667	1.8435768511140278	0.6914648868673954	0.0301	1.7452287406840936	0.722054301602548	0.0301	1.4891656744478359	0.4201509568855303	0.129	1.2625042964369757	0.1656511392419093	0.023	1.2865078402218928	-0.0014996117945813398	0.2179	1.2150356769451962	0.04323565992287806	0.1804	1.208559325824203	0.1479206124171351	-0.0119	1.9024480295567476	0.6239699876268862	0.0301	1.6405995126948456	0.351607759235773	0.129	1.4058126471994308	0.14792706010187814	0.023	1.4442187962702813	-0.008556920388173208	0.2179	1.475940947933325	0.00643292403752686	0.1804	1.344078767765468	0.12543648998613896	-0.0119	2.2624529012512586	1.1634254150034664	0.0008	2.5169516147703974	1.3231764914313406	0.0655	2.4443245305162735	1.1896743852636116	0.1076	2.0302836541217446	1.1963258358254432	-0.01275	1.7928481528225726	1.0168788579815964	0.0702	1.9071983410483384	1.0404310152059966	0.1076	2.2919991708902883	1.0042102319676058	-0.01275	2.1810155531636273	0.7738752563096565	0.0702	2.3922544509214787	0.6799633912073026	0.1076
